<svg width="24" height="23" viewBox="0 0 24 23" fill="none" xmlns="http://www.w3.org/2000/svg">
<path d="M11 8.625H13V6.70833H11M12 19.1667C7.59 19.1667 4 15.7262 4 11.5C4 7.27375 7.59 3.83333 12 3.83333C16.41 3.83333 20 7.27375 20 11.5C20 15.7262 16.41 19.1667 12 19.1667ZM12 1.91667C10.6868 1.91667 9.38642 2.16455 8.17317 2.64615C6.95991 3.12776 5.85752 3.83366 4.92893 4.72356C3.05357 6.52078 2 8.95834 2 11.5C2 14.0417 3.05357 16.4792 4.92893 18.2764C5.85752 19.1663 6.95991 19.8722 8.17317 20.3538C9.38642 20.8355 10.6868 21.0833 12 21.0833C14.6522 21.0833 17.1957 20.0737 19.0711 18.2764C20.9464 16.4792 22 14.0417 22 11.5C22 10.2415 21.7413 8.99532 21.2388 7.83262C20.7362 6.66991 19.9997 5.61345 19.0711 4.72356C18.1425 3.83366 17.0401 3.12776 15.8268 2.64615C14.6136 2.16455 13.3132 1.91667 12 1.91667ZM11 16.2917H13V10.5417H11V16.2917Z" fill="#1F1F1F"/>
</svg>
