<svg width="24" height="24" viewBox="0 0 24 24" fill="none" xmlns="http://www.w3.org/2000/svg">
<circle cx="12" cy="12" r="9" stroke="#1F1F1F" stroke-width="2"/>
<circle cx="8.5" cy="9.5" r="1.5" fill="#1F1F1F"/>
<path fill-rule="evenodd" clip-rule="evenodd" d="M11.995 14.0023C11.995 14.0018 11.995 14.0013 11.995 14.0008H6.90076C7.17323 14.6586 7.65065 15.4284 8.15412 15.9319C8.65759 16.4353 9.2553 16.8347 9.91312 17.1072C10.5599 17.3751 11.2742 17.5037 11.9747 17.508C11.9747 17.5085 11.9747 17.509 11.9747 17.5095H17.069C16.7966 16.8517 16.3191 16.0819 15.8157 15.5784C15.3122 15.075 14.7145 14.6756 14.0567 14.4031C13.4099 14.1352 12.6956 14.0066 11.995 14.0023Z" fill="#1F1F1F"/>
<path fill-rule="evenodd" clip-rule="evenodd" d="M14.0523 9.89271L13.0034 10.9331L14.0597 11.9981L15.1202 10.9462L16.1834 11.995L17.2369 10.9272L16.1853 9.88979L17.2508 8.83287L16.1945 7.7679L15.1174 8.83631L14.0546 7.78795L13.0012 8.8558L14.0523 9.89271Z" fill="#1F1F1F"/>
</svg>
